<?xml version="1.0" encoding="UTF-8" standalone="no" ?>
<!DOCTYPE svg PUBLIC "-//W3C//DTD SVG 1.1//EN" "http://www.w3.org/Graphics/SVG/1.1/DTD/svg11.dtd">
<svg xmlns="http://www.w3.org/2000/svg" xmlns:xlink="http://www.w3.org/1999/xlink" version="1.1" width="1080" height="1080" viewBox="-248.6 -8.46 1080 1080" xml:space="preserve">
<desc>Created with Fabric.js 5.2.4</desc>
<defs>
</defs>
<g transform="matrix(1 0 0 1 540 540)" id="642fa94a-d91c-40dc-9d0c-d6fa706410cc"  >
<rect style="stroke: none; stroke-width: 1; stroke-dasharray: none; stroke-linecap: butt; stroke-dashoffset: 0; stroke-linejoin: miter; stroke-miterlimit: 4; fill: rgb(255,255,255); fill-rule: nonzero; opacity: 1; visibility: hidden;" vector-effect="non-scaling-stroke"  x="-540" y="-540" rx="0" ry="0" width="1080" height="1080" />
</g>
<g transform="matrix(1 0 0 1 540 540)" id="cfc4477d-22ad-4a2a-b5d7-4dc2138c2cc7"  >
</g>
<g transform="matrix(3.56 0 0 0.09 194.22 496.23)" id="3a181f8b-803b-4b1b-982f-8a732817d9fb"  >
<rect style="stroke: rgb(0,0,0); stroke-width: 0; stroke-dasharray: none; stroke-linecap: butt; stroke-dashoffset: 0; stroke-linejoin: miter; stroke-miterlimit: 4; fill: rgb(33,130,91); fill-rule: nonzero; opacity: 1;" vector-effect="non-scaling-stroke"  x="-37.46" y="-19.415" rx="0" ry="0" width="74.92" height="38.83" />
</g>
<g transform="matrix(0.45 0.37 -0.06 0.07 342.76 508.58)" id="3a181f8b-803b-4b1b-982f-8a732817d9fb"  >
<rect style="stroke: rgb(0,0,0); stroke-width: 0; stroke-dasharray: none; stroke-linecap: butt; stroke-dashoffset: 0; stroke-linejoin: miter; stroke-miterlimit: 4; fill: rgb(33,130,91); fill-rule: nonzero; opacity: 1;" vector-effect="non-scaling-stroke"  x="-37.46" y="-19.415" rx="0" ry="0" width="74.92" height="38.83" />
</g>
<g transform="matrix(1.58 0 0 0.09 417.25 522.28)" id="3a181f8b-803b-4b1b-982f-8a732817d9fb"  >
<rect style="stroke: rgb(0,0,0); stroke-width: 0; stroke-dasharray: none; stroke-linecap: butt; stroke-dashoffset: 0; stroke-linejoin: miter; stroke-miterlimit: 4; fill: rgb(33,130,91); fill-rule: nonzero; opacity: 1;" vector-effect="non-scaling-stroke"  x="-37.46" y="-19.415" rx="0" ry="0" width="74.92" height="38.83" />
</g>
<g transform="matrix(0.15 0 0 0.15 474.34 522.14)" id="922d2058-d637-4c08-b955-2c98a19f3614"  >
<circle style="stroke: rgb(0,0,0); stroke-width: 0; stroke-dasharray: none; stroke-linecap: butt; stroke-dashoffset: 0; stroke-linejoin: miter; stroke-miterlimit: 4; fill: rgb(101,101,101); fill-rule: nonzero; opacity: 1;" vector-effect="non-scaling-stroke"  cx="0" cy="0" r="35" />
</g>
<g transform="matrix(0.16 0 0 0.16 63.89 496.28)" id="a99330c5-870d-4a3d-a62d-c8f7072ad391"  >
<circle style="stroke: rgb(0,0,0); stroke-width: 0; stroke-dasharray: none; stroke-linecap: butt; stroke-dashoffset: 0; stroke-linejoin: miter; stroke-miterlimit: 4; fill: rgb(101,101,101); fill-rule: nonzero; opacity: 1;" vector-effect="non-scaling-stroke"  cx="0" cy="0" r="35" />
</g>
<g transform="matrix(0.06 0 0 0.06 474.75 522.11)" id="2c93d6fd-f7c5-43f6-b292-c2fdde94bac0"  >
<circle style="stroke: rgb(0,0,0); stroke-width: 0; stroke-dasharray: none; stroke-linecap: butt; stroke-dashoffset: 0; stroke-linejoin: miter; stroke-miterlimit: 4; fill: rgb(0,0,0); fill-rule: nonzero; opacity: 1;" vector-effect="non-scaling-stroke"  cx="0" cy="0" r="35" />
</g>
<g transform="matrix(0.06 0 0 0.06 63.5 496.38)" id="2c93d6fd-f7c5-43f6-b292-c2fdde94bac0"  >
<circle style="stroke: rgb(0,0,0); stroke-width: 0; stroke-dasharray: none; stroke-linecap: butt; stroke-dashoffset: 0; stroke-linejoin: miter; stroke-miterlimit: 4; fill: rgb(0,0,0); fill-rule: nonzero; opacity: 1;" vector-effect="non-scaling-stroke"  cx="0" cy="0" r="35" />
</g>
<g transform="matrix(1 0 0 1 102 558.5)"  >
<path style="stroke: rgb(33,130,91); stroke-width: 4; stroke-dasharray: none; stroke-linecap: butt; stroke-dashoffset: 0; stroke-linejoin: miter; stroke-miterlimit: 4; fill: none; fill-rule: nonzero; opacity: 1;" vector-effect="non-scaling-stroke"  transform=" translate(-170, -122.5)" d="M 40 100 L 25 100 L 10 115 L 10 130 L 25 145 L 330 145" stroke-linecap="round" />
</g>
<g transform="matrix(1 0 0 1 267 581)"  >
<rect style="stroke: none; stroke-width: 1; stroke-dasharray: none; stroke-linecap: butt; stroke-dashoffset: 0; stroke-linejoin: miter; stroke-miterlimit: 4; fill: rgb(119,119,119); fill-rule: nonzero; opacity: 1;" vector-effect="non-scaling-stroke"  x="-5" y="-10" rx="0" ry="0" width="10" height="20" />
</g>
<g transform="matrix(1 0 0 1 297 581)"  >
<rect style="stroke: none; stroke-width: 1; stroke-dasharray: none; stroke-linecap: butt; stroke-dashoffset: 0; stroke-linejoin: miter; stroke-miterlimit: 4; fill: rgb(119,119,119); fill-rule: nonzero; opacity: 1;" vector-effect="non-scaling-stroke"  x="-5" y="-10" rx="0" ry="0" width="10" height="20" />
</g>
<g transform="matrix(1 0 0 1 282 581)"  >
<rect style="stroke: none; stroke-width: 1; stroke-dasharray: none; stroke-linecap: butt; stroke-dashoffset: 0; stroke-linejoin: miter; stroke-miterlimit: 4; fill: rgb(16,16,16); fill-rule: nonzero; opacity: 1;" vector-effect="non-scaling-stroke"  x="-15" y="-8" rx="0" ry="0" width="30" height="16" />
</g>
<g transform="matrix(1 0 0 1 268 581)"  >
<line style="stroke: rgb(153,153,153); stroke-width: 2; stroke-dasharray: none; stroke-linecap: butt; stroke-dashoffset: 0; stroke-linejoin: miter; stroke-miterlimit: 4; fill: rgb(0,0,0); fill-rule: nonzero; opacity: 1;" vector-effect="non-scaling-stroke"  x1="0" y1="-8" x2="0" y2="8" />
</g>
<g transform="matrix(1 0 0 1 297 581)"  >
<line style="stroke: rgb(153,153,153); stroke-width: 2; stroke-dasharray: none; stroke-linecap: butt; stroke-dashoffset: 0; stroke-linejoin: miter; stroke-miterlimit: 4; fill: rgb(0,0,0); fill-rule: nonzero; opacity: 1;" vector-effect="non-scaling-stroke"  x1="0" y1="-8" x2="0" y2="8" />
</g>
<g transform="matrix(1 0 0 1 281 581.99)" style=""  >
		<text xml:space="preserve" font-family="Times New Roman" font-size="16" font-style="normal" font-weight="normal" style="stroke: none; stroke-width: 1; stroke-dasharray: none; stroke-linecap: butt; stroke-dashoffset: 0; stroke-linejoin: miter; stroke-miterlimit: 4; fill: rgb(102,102,102); fill-rule: nonzero; opacity: 1; white-space: pre;" ><tspan x="-12" y="5.03" >102</tspan></text>
</g>
<g transform="matrix(1 0 0 1 467 581)"  >
<path style="stroke: rgb(33,130,91); stroke-width: 4; stroke-dasharray: none; stroke-linecap: butt; stroke-dashoffset: 0; stroke-linejoin: miter; stroke-miterlimit: 4; fill: none; fill-rule: nonzero; opacity: 1;" vector-effect="non-scaling-stroke"  transform=" translate(-535, -145)" d="M 370 145 L 700 145" stroke-linecap="round" />
</g>
<g transform="matrix(1 0 0 1 473 523.5)"  >
<path style="stroke: rgb(33,130,91); stroke-width: 4; stroke-dasharray: none; stroke-linecap: butt; stroke-dashoffset: 0; stroke-linejoin: miter; stroke-miterlimit: 4; fill: none; fill-rule: nonzero; opacity: 1;" vector-effect="non-scaling-stroke"  transform=" translate(-541, -87.5)" d="M 382 100 L 600 100 L 630 75 L 700 75" stroke-linecap="round" />
</g>
<g transform="matrix(1 0 0 1 473 532.5)"  >
<path style="stroke: rgb(33,130,91); stroke-width: 4; stroke-dasharray: none; stroke-linecap: butt; stroke-dashoffset: 0; stroke-linejoin: miter; stroke-miterlimit: 4; fill: none; fill-rule: nonzero; opacity: 1;" vector-effect="non-scaling-stroke"  transform=" translate(-541, -96.5)" d="M 382 108 L 606 108 L 634 85 L 700 85" stroke-linecap="round" />
</g>
<g transform="matrix(1 0 0 1 473 541.5)"  >
<path style="stroke: rgb(33,130,91); stroke-width: 4; stroke-dasharray: none; stroke-linecap: butt; stroke-dashoffset: 0; stroke-linejoin: miter; stroke-miterlimit: 4; fill: none; fill-rule: nonzero; opacity: 1;" vector-effect="non-scaling-stroke"  transform=" translate(-541, -105.5)" d="M 382 116 L 612 116 L 638 95 L 700 95" stroke-linecap="round" />
</g>
<g transform="matrix(1 0 0 1 602 561)"  >
<path style="stroke: rgb(33,130,91); stroke-width: 4; stroke-dasharray: none; stroke-linecap: butt; stroke-dashoffset: 0; stroke-linejoin: miter; stroke-miterlimit: 4; fill: none; fill-rule: nonzero; opacity: 1;" vector-effect="non-scaling-stroke"  transform=" translate(-670, -125)" d="M 700 125 L 640 125" stroke-linecap="round" />
</g>
<g transform="matrix(1 0 0 1 567 561)"  >
<circle style="stroke: rgb(112,112,112); stroke-width: 4; stroke-dasharray: none; stroke-linecap: butt; stroke-dashoffset: 0; stroke-linejoin: miter; stroke-miterlimit: 4; fill: rgb(17,17,17); fill-rule: nonzero; opacity: 1;" vector-effect="non-scaling-stroke"  cx="0" cy="0" r="4" />
</g>
<g transform="matrix(1 0 0 1 677 481)"  >
<path style="stroke: rgb(33,130,91); stroke-width: 4; stroke-dasharray: none; stroke-linecap: butt; stroke-dashoffset: 0; stroke-linejoin: miter; stroke-miterlimit: 4; fill: none; fill-rule: nonzero; opacity: 1;" vector-effect="non-scaling-stroke"  transform=" translate(-745, -45)" d="M 745 30 L 745 60" stroke-linecap="round" />
</g>
<g transform="matrix(1 0 0 1 662 488.5)"  >
<path style="stroke: rgb(33,130,91); stroke-width: 4; stroke-dasharray: none; stroke-linecap: butt; stroke-dashoffset: 0; stroke-linejoin: miter; stroke-miterlimit: 4; fill: none; fill-rule: nonzero; opacity: 1;" vector-effect="non-scaling-stroke"  transform=" translate(-730, -52.5)" d="M 735 60 L 735 55 L 725 45" stroke-linecap="round" />
</g>
<g transform="matrix(1 0 0 1 657 481)"  >
<circle style="stroke: rgb(112,112,112); stroke-width: 4; stroke-dasharray: none; stroke-linecap: butt; stroke-dashoffset: 0; stroke-linejoin: miter; stroke-miterlimit: 4; fill: rgb(17,17,17); fill-rule: nonzero; opacity: 1;" vector-effect="non-scaling-stroke"  cx="0" cy="0" r="4" />
</g>
<g transform="matrix(1 0 0 1 772.5 571)"  >
<path style="stroke: rgb(33,130,91); stroke-width: 4; stroke-dasharray: none; stroke-linecap: butt; stroke-dashoffset: 0; stroke-linejoin: miter; stroke-miterlimit: 4; fill: none; fill-rule: nonzero; opacity: 1;" vector-effect="non-scaling-stroke"  transform=" translate(-840.5, -135)" d="M 781 135 L 900 135" stroke-linecap="round" />
</g>
<g transform="matrix(1 0 0 1 837 571)"  >
<rect style="stroke: none; stroke-width: 1; stroke-dasharray: none; stroke-linecap: butt; stroke-dashoffset: 0; stroke-linejoin: miter; stroke-miterlimit: 4; fill: rgb(119,119,119); fill-rule: nonzero; opacity: 1;" vector-effect="non-scaling-stroke"  x="-5" y="-10" rx="0" ry="0" width="10" height="20" />
</g>
<g transform="matrix(1 0 0 1 867 571)"  >
<rect style="stroke: none; stroke-width: 1; stroke-dasharray: none; stroke-linecap: butt; stroke-dashoffset: 0; stroke-linejoin: miter; stroke-miterlimit: 4; fill: rgb(119,119,119); fill-rule: nonzero; opacity: 1;" vector-effect="non-scaling-stroke"  x="-5" y="-10" rx="0" ry="0" width="10" height="20" />
</g>
<g transform="matrix(1 0 0 1 852 571)"  >
<rect style="stroke: none; stroke-width: 1; stroke-dasharray: none; stroke-linecap: butt; stroke-dashoffset: 0; stroke-linejoin: miter; stroke-miterlimit: 4; fill: rgb(94,38,5); fill-rule: nonzero; opacity: 1;" vector-effect="non-scaling-stroke"  x="-15" y="-8" rx="0" ry="0" width="30" height="16" />
</g>
<g transform="matrix(1 0 0 1 838.13 571)"  >
<path style="stroke: rgb(153,153,153); stroke-width: 2; stroke-dasharray: none; stroke-linecap: butt; stroke-dashoffset: 0; stroke-linejoin: miter; stroke-miterlimit: 4; fill: rgb(153,153,153); fill-rule: nonzero; opacity: 1;" vector-effect="non-scaling-stroke"  transform=" translate(-906.13, -135)" d="M 905 127 Q 908 135 905 143 Z" stroke-linecap="round" />
</g>
<g transform="matrix(1 0 0 1 865.88 571)"  >
<path style="stroke: rgb(153,153,153); stroke-width: 2; stroke-dasharray: none; stroke-linecap: butt; stroke-dashoffset: 0; stroke-linejoin: miter; stroke-miterlimit: 4; fill: rgb(153,153,153); fill-rule: nonzero; opacity: 1;" vector-effect="non-scaling-stroke"  transform=" translate(-933.88, -135)" d="M 935 127 Q 932 135 935 143 Z" stroke-linecap="round" />
</g>
<g transform="matrix(1 0 0 1 952 571)"  >
<path style="stroke: rgb(33,130,91); stroke-width: 4; stroke-dasharray: none; stroke-linecap: butt; stroke-dashoffset: 0; stroke-linejoin: miter; stroke-miterlimit: 4; fill: none; fill-rule: nonzero; opacity: 1;" vector-effect="non-scaling-stroke"  transform=" translate(-1020, -135)" d="M 940 135 L 1100 135" stroke-linecap="round" />
</g>
<g transform="matrix(1 0 0 1 1036 571)"  >
<circle style="stroke: rgb(112,112,112); stroke-width: 4; stroke-dasharray: none; stroke-linecap: butt; stroke-dashoffset: 0; stroke-linejoin: miter; stroke-miterlimit: 4; fill: rgb(17,17,17); fill-rule: nonzero; opacity: 1;" vector-effect="non-scaling-stroke"  cx="0" cy="0" r="4" />
</g>
<g transform="matrix(1 0 0 1 540 606)"  >
<path style="stroke: rgb(33,130,91); stroke-width: 4; stroke-dasharray: none; stroke-linecap: butt; stroke-dashoffset: 0; stroke-linejoin: miter; stroke-miterlimit: 4; fill: none; fill-rule: nonzero; opacity: 1;" vector-effect="non-scaling-stroke"  transform=" translate(-600, -170)" d="M 100 170 L 1100 170" stroke-linecap="round" />
</g>
<g transform="matrix(1 0 0 1 32 606)"  >
<circle style="stroke: rgb(112,112,112); stroke-width: 4; stroke-dasharray: none; stroke-linecap: butt; stroke-dashoffset: 0; stroke-linejoin: miter; stroke-miterlimit: 4; fill: rgb(17,17,17); fill-rule: nonzero; opacity: 1;" vector-effect="non-scaling-stroke"  cx="0" cy="0" r="4" />
</g>
<g transform="matrix(1 0 0 1 1032 606)"  >
<circle style="stroke: rgb(112,112,112); stroke-width: 4; stroke-dasharray: none; stroke-linecap: butt; stroke-dashoffset: 0; stroke-linejoin: miter; stroke-miterlimit: 4; fill: rgb(17,17,17); fill-rule: nonzero; opacity: 1;" vector-effect="non-scaling-stroke"  cx="0" cy="0" r="4" />
</g>
<g transform="matrix(1 0 0 1 552 616)"  >
<path style="stroke: rgb(33,130,91); stroke-width: 4; stroke-dasharray: none; stroke-linecap: butt; stroke-dashoffset: 0; stroke-linejoin: miter; stroke-miterlimit: 4; fill: none; fill-rule: nonzero; opacity: 1;" vector-effect="non-scaling-stroke"  transform=" translate(-620, -180)" d="M 120 180 L 1120 180" stroke-linecap="round" />
</g>
<g transform="matrix(0 -0.34 0.41 0 720.34 501.21)" id="d6db13a4-bae0-4291-b5ba-70805f034e90"  >
<rect style="stroke: rgb(0,0,0); stroke-width: 0; stroke-dasharray: none; stroke-linecap: butt; stroke-dashoffset: 0; stroke-linejoin: miter; stroke-miterlimit: 4; fill: rgb(33,130,91); fill-rule: nonzero; opacity: 1;" vector-effect="non-scaling-stroke"  x="-37.46" y="-19.415" rx="0" ry="0" width="74.92" height="38.83" />
</g>
<g transform="matrix(1 0 0 1 52 616)"  >
<circle style="stroke: rgb(112,112,112); stroke-width: 4; stroke-dasharray: none; stroke-linecap: butt; stroke-dashoffset: 0; stroke-linejoin: miter; stroke-miterlimit: 4; fill: rgb(17,17,17); fill-rule: nonzero; opacity: 1;" vector-effect="non-scaling-stroke"  cx="0" cy="0" r="4" />
</g>
<g transform="matrix(1 0 0 1 1052 616)"  >
<circle style="stroke: rgb(112,112,112); stroke-width: 4; stroke-dasharray: none; stroke-linecap: butt; stroke-dashoffset: 0; stroke-linejoin: miter; stroke-miterlimit: 4; fill: rgb(17,17,17); fill-rule: nonzero; opacity: 1;" vector-effect="non-scaling-stroke"  cx="0" cy="0" r="4" />
</g>
<g transform="matrix(1 0 0 1 262.27 498.5)"  >
<path style="stroke: rgb(33,130,91); stroke-width: 4; stroke-dasharray: none; stroke-linecap: butt; stroke-dashoffset: 0; stroke-linejoin: miter; stroke-miterlimit: 4; fill: none; fill-rule: nonzero; opacity: 1;" vector-effect="non-scaling-stroke"  transform=" translate(-330, -62.5)" d="M 150 50 L 400 50 L 430 75 L 510 75" stroke-linecap="round" />
</g>
<g transform="matrix(1 0 0 1 82 486)"  >
<circle style="stroke: rgb(112,112,112); stroke-width: 4; stroke-dasharray: none; stroke-linecap: butt; stroke-dashoffset: 0; stroke-linejoin: miter; stroke-miterlimit: 4; fill: rgb(17,17,17); fill-rule: nonzero; opacity: 1;" vector-effect="non-scaling-stroke"  cx="0" cy="0" r="4" />
</g>
<g transform="matrix(1 0 0 1 442 511)"  >
<circle style="stroke: rgb(112,112,112); stroke-width: 4; stroke-dasharray: none; stroke-linecap: butt; stroke-dashoffset: 0; stroke-linejoin: miter; stroke-miterlimit: 4; fill: rgb(17,17,17); fill-rule: nonzero; opacity: 1;" vector-effect="non-scaling-stroke"  cx="0" cy="0" r="4" />
</g>
<g transform="matrix(1 0 0 1 282 488.5)"  >
<path style="stroke: rgb(33,130,91); stroke-width: 4; stroke-dasharray: none; stroke-linecap: butt; stroke-dashoffset: 0; stroke-linejoin: miter; stroke-miterlimit: 4; fill: none; fill-rule: nonzero; opacity: 1;" vector-effect="non-scaling-stroke"  transform=" translate(-350, -52.5)" d="M 170 40 L 405 40 L 435 65 L 530 65" stroke-linecap="round" />
</g>
<g transform="matrix(1 0 0 1 102 476)"  >
<circle style="stroke: rgb(112,112,112); stroke-width: 4; stroke-dasharray: none; stroke-linecap: butt; stroke-dashoffset: 0; stroke-linejoin: miter; stroke-miterlimit: 4; fill: rgb(17,17,17); fill-rule: nonzero; opacity: 1;" vector-effect="non-scaling-stroke"  cx="0" cy="0" r="4" />
</g>
<g transform="matrix(1 0 0 1 462 501)"  >
<circle style="stroke: rgb(112,112,112); stroke-width: 4; stroke-dasharray: none; stroke-linecap: butt; stroke-dashoffset: 0; stroke-linejoin: miter; stroke-miterlimit: 4; fill: rgb(17,17,17); fill-rule: nonzero; opacity: 1;" vector-effect="non-scaling-stroke"  cx="0" cy="0" r="4" />
</g>
<g transform="matrix(1 0 0 1 704 514)"  >
<circle style="stroke: none; stroke-width: 1; stroke-dasharray: none; stroke-linecap: butt; stroke-dashoffset: 0; stroke-linejoin: miter; stroke-miterlimit: 4; fill: rgb(85,85,85); fill-rule: nonzero; opacity: 1;" vector-effect="non-scaling-stroke"  cx="0" cy="0" r="4" />
</g>
<g transform="matrix(1 0 0 1 637 500.5)"  >
<line style="stroke: rgb(170,170,170); stroke-width: 4; stroke-dasharray: none; stroke-linecap: butt; stroke-dashoffset: 0; stroke-linejoin: miter; stroke-miterlimit: 4; fill: rgb(0,0,0); fill-rule: nonzero; opacity: 1;" vector-effect="non-scaling-stroke"  x1="0" y1="4.5" x2="0" y2="-4.5" />
</g>
<g transform="matrix(1 0 0 1 672 546)" id="micro"  >
<rect style="stroke: rgb(20,20,20); stroke-width: 3; stroke-dasharray: none; stroke-linecap: butt; stroke-dashoffset: 0; stroke-linejoin: miter; stroke-miterlimit: 4; fill: rgb(40,40,40); fill-rule: nonzero; opacity: 1;" vector-effect="non-scaling-stroke"  x="-40" y="-40" rx="0" ry="0" width="80" height="80" />
</g>
<g transform="matrix(1 0 0 1 647 500.5)"  >
<line style="stroke: rgb(170,170,170); stroke-width: 4; stroke-dasharray: none; stroke-linecap: butt; stroke-dashoffset: 0; stroke-linejoin: miter; stroke-miterlimit: 4; fill: rgb(0,0,0); fill-rule: nonzero; opacity: 1;" vector-effect="non-scaling-stroke"  x1="0" y1="4.5" x2="0" y2="-4.5" />
</g>
<g transform="matrix(1 0 0 1 657 500.5)"  >
<line style="stroke: rgb(170,170,170); stroke-width: 4; stroke-dasharray: none; stroke-linecap: butt; stroke-dashoffset: 0; stroke-linejoin: miter; stroke-miterlimit: 4; fill: rgb(0,0,0); fill-rule: nonzero; opacity: 1;" vector-effect="non-scaling-stroke"  x1="0" y1="4.5" x2="0" y2="-4.5" />
</g>
<g transform="matrix(1 0 0 1 667 500.5)"  >
<line style="stroke: rgb(170,170,170); stroke-width: 4; stroke-dasharray: none; stroke-linecap: butt; stroke-dashoffset: 0; stroke-linejoin: miter; stroke-miterlimit: 4; fill: rgb(0,0,0); fill-rule: nonzero; opacity: 1;" vector-effect="non-scaling-stroke"  x1="0" y1="4.5" x2="0" y2="-4.5" />
</g>
<g transform="matrix(1 0 0 1 677 500.5)"  >
<line style="stroke: rgb(170,170,170); stroke-width: 4; stroke-dasharray: none; stroke-linecap: butt; stroke-dashoffset: 0; stroke-linejoin: miter; stroke-miterlimit: 4; fill: rgb(0,0,0); fill-rule: nonzero; opacity: 1;" vector-effect="non-scaling-stroke"  x1="0" y1="4.5" x2="0" y2="-4.5" />
</g>
<g transform="matrix(1 0 0 1 687 500.5)"  >
<line style="stroke: rgb(170,170,170); stroke-width: 4; stroke-dasharray: none; stroke-linecap: butt; stroke-dashoffset: 0; stroke-linejoin: miter; stroke-miterlimit: 4; fill: rgb(0,0,0); fill-rule: nonzero; opacity: 1;" vector-effect="non-scaling-stroke"  x1="0" y1="4.5" x2="0" y2="-4.5" />
</g>
<g transform="matrix(1 0 0 1 697 500.5)"  >
<line style="stroke: rgb(170,170,170); stroke-width: 4; stroke-dasharray: none; stroke-linecap: butt; stroke-dashoffset: 0; stroke-linejoin: miter; stroke-miterlimit: 4; fill: rgb(0,0,0); fill-rule: nonzero; opacity: 1;" vector-effect="non-scaling-stroke"  x1="0" y1="4.5" x2="0" y2="-4.5" />
</g>
<g transform="matrix(1 0 0 1 707 500.5)"  >
<line style="stroke: rgb(170,170,170); stroke-width: 4; stroke-dasharray: none; stroke-linecap: butt; stroke-dashoffset: 0; stroke-linejoin: miter; stroke-miterlimit: 4; fill: rgb(0,0,0); fill-rule: nonzero; opacity: 1;" vector-effect="non-scaling-stroke"  x1="0" y1="4.5" x2="0" y2="-4.5" />
</g>
<g transform="matrix(1 0 0 1 626.5 511)"  >
<line style="stroke: rgb(170,170,170); stroke-width: 4; stroke-dasharray: none; stroke-linecap: butt; stroke-dashoffset: 0; stroke-linejoin: miter; stroke-miterlimit: 4; fill: rgb(0,0,0); fill-rule: nonzero; opacity: 1;" vector-effect="non-scaling-stroke"  x1="4.5" y1="0" x2="-4.5" y2="0" />
</g>
<g transform="matrix(1 0 0 1 626.5 521)"  >
<line style="stroke: rgb(170,170,170); stroke-width: 4; stroke-dasharray: none; stroke-linecap: butt; stroke-dashoffset: 0; stroke-linejoin: miter; stroke-miterlimit: 4; fill: rgb(0,0,0); fill-rule: nonzero; opacity: 1;" vector-effect="non-scaling-stroke"  x1="4.5" y1="0" x2="-4.5" y2="0" />
</g>
<g transform="matrix(1 0 0 1 626.5 531)"  >
<line style="stroke: rgb(170,170,170); stroke-width: 4; stroke-dasharray: none; stroke-linecap: butt; stroke-dashoffset: 0; stroke-linejoin: miter; stroke-miterlimit: 4; fill: rgb(0,0,0); fill-rule: nonzero; opacity: 1;" vector-effect="non-scaling-stroke"  x1="4.5" y1="0" x2="-4.5" y2="0" />
</g>
<g transform="matrix(1 0 0 1 626.5 541)"  >
<line style="stroke: rgb(170,170,170); stroke-width: 4; stroke-dasharray: none; stroke-linecap: butt; stroke-dashoffset: 0; stroke-linejoin: miter; stroke-miterlimit: 4; fill: rgb(0,0,0); fill-rule: nonzero; opacity: 1;" vector-effect="non-scaling-stroke"  x1="4.5" y1="0" x2="-4.5" y2="0" />
</g>
<g transform="matrix(1 0 0 1 626.5 551)"  >
<line style="stroke: rgb(170,170,170); stroke-width: 4; stroke-dasharray: none; stroke-linecap: butt; stroke-dashoffset: 0; stroke-linejoin: miter; stroke-miterlimit: 4; fill: rgb(0,0,0); fill-rule: nonzero; opacity: 1;" vector-effect="non-scaling-stroke"  x1="4.5" y1="0" x2="-4.5" y2="0" />
</g>
<g transform="matrix(1 0 0 1 626.5 561)"  >
<line style="stroke: rgb(170,170,170); stroke-width: 4; stroke-dasharray: none; stroke-linecap: butt; stroke-dashoffset: 0; stroke-linejoin: miter; stroke-miterlimit: 4; fill: rgb(0,0,0); fill-rule: nonzero; opacity: 1;" vector-effect="non-scaling-stroke"  x1="4.5" y1="0" x2="-4.5" y2="0" />
</g>
<g transform="matrix(1 0 0 1 626.5 571)"  >
<line style="stroke: rgb(170,170,170); stroke-width: 4; stroke-dasharray: none; stroke-linecap: butt; stroke-dashoffset: 0; stroke-linejoin: miter; stroke-miterlimit: 4; fill: rgb(0,0,0); fill-rule: nonzero; opacity: 1;" vector-effect="non-scaling-stroke"  x1="4.5" y1="0" x2="-4.5" y2="0" />
</g>
<g transform="matrix(1 0 0 1 626.5 581)"  >
<line style="stroke: rgb(170,170,170); stroke-width: 4; stroke-dasharray: none; stroke-linecap: butt; stroke-dashoffset: 0; stroke-linejoin: miter; stroke-miterlimit: 4; fill: rgb(0,0,0); fill-rule: nonzero; opacity: 1;" vector-effect="non-scaling-stroke"  x1="4.5" y1="0" x2="-4.5" y2="0" />
</g>
<g transform="matrix(1 0 0 1 637 591.5)"  >
<line style="stroke: rgb(170,170,170); stroke-width: 4; stroke-dasharray: none; stroke-linecap: butt; stroke-dashoffset: 0; stroke-linejoin: miter; stroke-miterlimit: 4; fill: rgb(0,0,0); fill-rule: nonzero; opacity: 1;" vector-effect="non-scaling-stroke"  x1="0" y1="-4.5" x2="0" y2="4.5" />
</g>
<g transform="matrix(1 0 0 1 647 591.5)"  >
<line style="stroke: rgb(170,170,170); stroke-width: 4; stroke-dasharray: none; stroke-linecap: butt; stroke-dashoffset: 0; stroke-linejoin: miter; stroke-miterlimit: 4; fill: rgb(0,0,0); fill-rule: nonzero; opacity: 1;" vector-effect="non-scaling-stroke"  x1="0" y1="-4.5" x2="0" y2="4.5" />
</g>
<g transform="matrix(1 0 0 1 657 591.5)"  >
<line style="stroke: rgb(170,170,170); stroke-width: 4; stroke-dasharray: none; stroke-linecap: butt; stroke-dashoffset: 0; stroke-linejoin: miter; stroke-miterlimit: 4; fill: rgb(0,0,0); fill-rule: nonzero; opacity: 1;" vector-effect="non-scaling-stroke"  x1="0" y1="-4.5" x2="0" y2="4.5" />
</g>
<g transform="matrix(1 0 0 1 667 591.5)"  >
<line style="stroke: rgb(170,170,170); stroke-width: 4; stroke-dasharray: none; stroke-linecap: butt; stroke-dashoffset: 0; stroke-linejoin: miter; stroke-miterlimit: 4; fill: rgb(0,0,0); fill-rule: nonzero; opacity: 1;" vector-effect="non-scaling-stroke"  x1="0" y1="-4.5" x2="0" y2="4.5" />
</g>
<g transform="matrix(1 0 0 1 677 591.5)"  >
<line style="stroke: rgb(170,170,170); stroke-width: 4; stroke-dasharray: none; stroke-linecap: butt; stroke-dashoffset: 0; stroke-linejoin: miter; stroke-miterlimit: 4; fill: rgb(0,0,0); fill-rule: nonzero; opacity: 1;" vector-effect="non-scaling-stroke"  x1="0" y1="-4.5" x2="0" y2="4.5" />
</g>
<g transform="matrix(1 0 0 1 687 591.5)"  >
<line style="stroke: rgb(170,170,170); stroke-width: 4; stroke-dasharray: none; stroke-linecap: butt; stroke-dashoffset: 0; stroke-linejoin: miter; stroke-miterlimit: 4; fill: rgb(0,0,0); fill-rule: nonzero; opacity: 1;" vector-effect="non-scaling-stroke"  x1="0" y1="-4.5" x2="0" y2="4.5" />
</g>
<g transform="matrix(1 0 0 1 697 591.5)"  >
<line style="stroke: rgb(170,170,170); stroke-width: 4; stroke-dasharray: none; stroke-linecap: butt; stroke-dashoffset: 0; stroke-linejoin: miter; stroke-miterlimit: 4; fill: rgb(0,0,0); fill-rule: nonzero; opacity: 1;" vector-effect="non-scaling-stroke"  x1="0" y1="-4.5" x2="0" y2="4.5" />
</g>
<g transform="matrix(1 0 0 1 707 591.5)"  >
<line style="stroke: rgb(170,170,170); stroke-width: 4; stroke-dasharray: none; stroke-linecap: butt; stroke-dashoffset: 0; stroke-linejoin: miter; stroke-miterlimit: 4; fill: rgb(0,0,0); fill-rule: nonzero; opacity: 1;" vector-effect="non-scaling-stroke"  x1="0" y1="-4.5" x2="0" y2="4.5" />
</g>
<g transform="matrix(1 0 0 1 717.5 521)"  >
<line style="stroke: rgb(170,170,170); stroke-width: 4; stroke-dasharray: none; stroke-linecap: butt; stroke-dashoffset: 0; stroke-linejoin: miter; stroke-miterlimit: 4; fill: rgb(0,0,0); fill-rule: nonzero; opacity: 1;" vector-effect="non-scaling-stroke"  x1="-4.5" y1="0" x2="4.5" y2="0" />
</g>
<g transform="matrix(1 0 0 1 717.5 531)"  >
<line style="stroke: rgb(170,170,170); stroke-width: 4; stroke-dasharray: none; stroke-linecap: butt; stroke-dashoffset: 0; stroke-linejoin: miter; stroke-miterlimit: 4; fill: rgb(0,0,0); fill-rule: nonzero; opacity: 1;" vector-effect="non-scaling-stroke"  x1="-4.5" y1="0" x2="4.5" y2="0" />
</g>
<g transform="matrix(1 0 0 1 717.5 541)"  >
<line style="stroke: rgb(170,170,170); stroke-width: 4; stroke-dasharray: none; stroke-linecap: butt; stroke-dashoffset: 0; stroke-linejoin: miter; stroke-miterlimit: 4; fill: rgb(0,0,0); fill-rule: nonzero; opacity: 1;" vector-effect="non-scaling-stroke"  x1="-4.5" y1="0" x2="4.5" y2="0" />
</g>
<g transform="matrix(1 0 0 1 717.5 551)"  >
<line style="stroke: rgb(170,170,170); stroke-width: 4; stroke-dasharray: none; stroke-linecap: butt; stroke-dashoffset: 0; stroke-linejoin: miter; stroke-miterlimit: 4; fill: rgb(0,0,0); fill-rule: nonzero; opacity: 1;" vector-effect="non-scaling-stroke"  x1="-4.5" y1="0" x2="4.5" y2="0" />
</g>
<g transform="matrix(1 0 0 1 717.5 561)"  >
<line style="stroke: rgb(170,170,170); stroke-width: 4; stroke-dasharray: none; stroke-linecap: butt; stroke-dashoffset: 0; stroke-linejoin: miter; stroke-miterlimit: 4; fill: rgb(0,0,0); fill-rule: nonzero; opacity: 1;" vector-effect="non-scaling-stroke"  x1="-4.5" y1="0" x2="4.5" y2="0" />
</g>
<g transform="matrix(1 0 0 1 717.5 571)"  >
<line style="stroke: rgb(170,170,170); stroke-width: 4; stroke-dasharray: none; stroke-linecap: butt; stroke-dashoffset: 0; stroke-linejoin: miter; stroke-miterlimit: 4; fill: rgb(0,0,0); fill-rule: nonzero; opacity: 1;" vector-effect="non-scaling-stroke"  x1="-4.5" y1="0" x2="4.5" y2="0" />
</g>
<g transform="matrix(1 0 0 1 717.5 581)"  >
<line style="stroke: rgb(170,170,170); stroke-width: 4; stroke-dasharray: none; stroke-linecap: butt; stroke-dashoffset: 0; stroke-linejoin: miter; stroke-miterlimit: 4; fill: rgb(0,0,0); fill-rule: nonzero; opacity: 1;" vector-effect="non-scaling-stroke"  x1="-4.5" y1="0" x2="4.5" y2="0" />
</g>
<g transform="matrix(1 0 0 1 834 508)"  >
<rect style="stroke: rgb(0,0,0); stroke-width: 3; stroke-dasharray: none; stroke-linecap: butt; stroke-dashoffset: 0; stroke-linejoin: miter; stroke-miterlimit: 4; fill: rgb(34,34,34); fill-rule: nonzero; opacity: 1;" vector-effect="non-scaling-stroke"  x="-22" y="-22" rx="0" ry="0" width="44" height="44" />
</g>
<g transform="matrix(1 0 0 1 834 508)"  >
<circle style="stroke: rgb(102,102,102); stroke-width: 2; stroke-dasharray: none; stroke-linecap: butt; stroke-dashoffset: 0; stroke-linejoin: miter; stroke-miterlimit: 4; fill: rgb(136,0,0); fill-rule: nonzero; opacity: 1;" vector-effect="non-scaling-stroke"  cx="0" cy="0" r="20" />
</g>
<g transform="matrix(1 0 0 1 844 508)" id="red_pot_line"  >
<line style="stroke: rgb(187,187,187); stroke-width: 3; stroke-dasharray: none; stroke-linecap: butt; stroke-dashoffset: 0; stroke-linejoin: miter; stroke-miterlimit: 4; fill: rgb(0,0,0); fill-rule: nonzero; opacity: 1;" vector-effect="non-scaling-stroke"  x1="-10" y1="0" x2="10" y2="0" />
</g>
<g transform="matrix(1 0 0 1 809.5 491)"  >
<line style="stroke: rgb(170,170,170); stroke-width: 4; stroke-dasharray: none; stroke-linecap: butt; stroke-dashoffset: 0; stroke-linejoin: miter; stroke-miterlimit: 4; fill: rgb(0,0,0); fill-rule: nonzero; opacity: 1;" vector-effect="non-scaling-stroke"  x1="2.5" y1="0" x2="-2.5" y2="0" />
</g>
<g transform="matrix(1 0 0 1 717.5 511)"  >
<line style="stroke: rgb(170,170,170); stroke-width: 4; stroke-dasharray: none; stroke-linecap: butt; stroke-dashoffset: 0; stroke-linejoin: miter; stroke-miterlimit: 4; fill: rgb(0,0,0); fill-rule: nonzero; opacity: 1;" vector-effect="non-scaling-stroke"  x1="-4.5" y1="0" x2="4.5" y2="0" />
</g>
<g transform="matrix(1 0 0 1 858.5 491)"  >
<line style="stroke: rgb(170,170,170); stroke-width: 4; stroke-dasharray: none; stroke-linecap: butt; stroke-dashoffset: 0; stroke-linejoin: miter; stroke-miterlimit: 4; fill: rgb(0,0,0); fill-rule: nonzero; opacity: 1;" vector-effect="non-scaling-stroke"  x1="-2.5" y1="0" x2="2.5" y2="0" />
</g>
<g transform="matrix(1 0 0 1 809.5 525)"  >
<line style="stroke: rgb(170,170,170); stroke-width: 4; stroke-dasharray: none; stroke-linecap: butt; stroke-dashoffset: 0; stroke-linejoin: miter; stroke-miterlimit: 4; fill: rgb(0,0,0); fill-rule: nonzero; opacity: 1;" vector-effect="non-scaling-stroke"  x1="2.5" y1="0" x2="-2.5" y2="0" />
</g>
<g transform="matrix(1 0 0 1 914 508)"  >
<rect style="stroke: rgb(0,0,0); stroke-width: 3; stroke-dasharray: none; stroke-linecap: butt; stroke-dashoffset: 0; stroke-linejoin: miter; stroke-miterlimit: 4; fill: rgb(34,34,34); fill-rule: nonzero; opacity: 1;" vector-effect="non-scaling-stroke"  x="-22" y="-22" rx="0" ry="0" width="44" height="44" />
</g>
<g transform="matrix(1 0 0 1 914 508)"  >
<circle style="stroke: rgb(102,102,102); stroke-width: 2; stroke-dasharray: none; stroke-linecap: butt; stroke-dashoffset: 0; stroke-linejoin: miter; stroke-miterlimit: 4; fill: rgb(0,136,0); fill-rule: nonzero; opacity: 1;" vector-effect="non-scaling-stroke"  cx="0" cy="0" r="20" />
</g>
<g transform="matrix(1 0 0 1 924 508)" id="green_pot_line"  >
<line style="stroke: rgb(187,187,187); stroke-width: 3; stroke-dasharray: none; stroke-linecap: butt; stroke-dashoffset: 0; stroke-linejoin: miter; stroke-miterlimit: 4; fill: rgb(0,0,0); fill-rule: nonzero; opacity: 1;" vector-effect="non-scaling-stroke"  x1="-10" y1="0" x2="10" y2="0" />
</g>
<g transform="matrix(1 0 0 1 889.5 491)"  >
<line style="stroke: rgb(170,170,170); stroke-width: 4; stroke-dasharray: none; stroke-linecap: butt; stroke-dashoffset: 0; stroke-linejoin: miter; stroke-miterlimit: 4; fill: rgb(0,0,0); fill-rule: nonzero; opacity: 1;" vector-effect="non-scaling-stroke"  x1="2.5" y1="0" x2="-2.5" y2="0" />
</g>
<g transform="matrix(1 0 0 1 938.5 491)"  >
<line style="stroke: rgb(170,170,170); stroke-width: 4; stroke-dasharray: none; stroke-linecap: butt; stroke-dashoffset: 0; stroke-linejoin: miter; stroke-miterlimit: 4; fill: rgb(0,0,0); fill-rule: nonzero; opacity: 1;" vector-effect="non-scaling-stroke"  x1="-2.5" y1="0" x2="2.5" y2="0" />
</g>
<g transform="matrix(1 0 0 1 889.5 525)"  >
<line style="stroke: rgb(170,170,170); stroke-width: 4; stroke-dasharray: none; stroke-linecap: butt; stroke-dashoffset: 0; stroke-linejoin: miter; stroke-miterlimit: 4; fill: rgb(0,0,0); fill-rule: nonzero; opacity: 1;" vector-effect="non-scaling-stroke"  x1="2.5" y1="0" x2="-2.5" y2="0" />
</g>
<g transform="matrix(1 0 0 1 938.5 525)"  >
<line style="stroke: rgb(170,170,170); stroke-width: 4; stroke-dasharray: none; stroke-linecap: butt; stroke-dashoffset: 0; stroke-linejoin: miter; stroke-miterlimit: 4; fill: rgb(0,0,0); fill-rule: nonzero; opacity: 1;" vector-effect="non-scaling-stroke"  x1="-2.5" y1="0" x2="2.5" y2="0" />
</g>
<g transform="matrix(1 0 0 1 994 508)"  >
<rect style="stroke: rgb(0,0,0); stroke-width: 3; stroke-dasharray: none; stroke-linecap: butt; stroke-dashoffset: 0; stroke-linejoin: miter; stroke-miterlimit: 4; fill: rgb(34,34,34); fill-rule: nonzero; opacity: 1;" vector-effect="non-scaling-stroke"  x="-22" y="-22" rx="0" ry="0" width="44" height="44" />
</g>
<g transform="matrix(1 0 0 1 994 508)"  >
<circle style="stroke: rgb(102,102,102); stroke-width: 2; stroke-dasharray: none; stroke-linecap: butt; stroke-dashoffset: 0; stroke-linejoin: miter; stroke-miterlimit: 4; fill: rgb(0,0,136); fill-rule: nonzero; opacity: 1;" vector-effect="non-scaling-stroke"  cx="0" cy="0" r="20" />
</g>
<g transform="matrix(1 0 0 1 1004 508)" id="blue_pot_line"  >
<line style="stroke: rgb(187,187,187); stroke-width: 3; stroke-dasharray: none; stroke-linecap: butt; stroke-dashoffset: 0; stroke-linejoin: miter; stroke-miterlimit: 4; fill: rgb(0,0,0); fill-rule: nonzero; opacity: 1;" vector-effect="non-scaling-stroke"  x1="-10" y1="0" x2="10" y2="0" />
</g>
<g transform="matrix(1 0 0 1 969.5 491)"  >
<line style="stroke: rgb(170,170,170); stroke-width: 4; stroke-dasharray: none; stroke-linecap: butt; stroke-dashoffset: 0; stroke-linejoin: miter; stroke-miterlimit: 4; fill: rgb(0,0,0); fill-rule: nonzero; opacity: 1;" vector-effect="non-scaling-stroke"  x1="2.5" y1="0" x2="-2.5" y2="0" />
</g>
<g transform="matrix(1 0 0 1 858.75 525)"  >
<line style="stroke: rgb(170,170,170); stroke-width: 4; stroke-dasharray: none; stroke-linecap: butt; stroke-dashoffset: 0; stroke-linejoin: miter; stroke-miterlimit: 4; fill: rgb(0,0,0); fill-rule: nonzero; opacity: 1;" vector-effect="non-scaling-stroke"  x1="-2.5" y1="0" x2="2.5" y2="0" />
</g>
<g transform="matrix(1 0 0 1 1018.5 491)"  >
<line style="stroke: rgb(170,170,170); stroke-width: 4; stroke-dasharray: none; stroke-linecap: butt; stroke-dashoffset: 0; stroke-linejoin: miter; stroke-miterlimit: 4; fill: rgb(0,0,0); fill-rule: nonzero; opacity: 1;" vector-effect="non-scaling-stroke"  x1="-2.5" y1="0" x2="2.5" y2="0" />
</g>
<g transform="matrix(1 0 0 1 969.5 525)"  >
<line style="stroke: rgb(170,170,170); stroke-width: 4; stroke-dasharray: none; stroke-linecap: butt; stroke-dashoffset: 0; stroke-linejoin: miter; stroke-miterlimit: 4; fill: rgb(0,0,0); fill-rule: nonzero; opacity: 1;" vector-effect="non-scaling-stroke"  x1="2.5" y1="0" x2="-2.5" y2="0" />
</g>
<g transform="matrix(1 0 0 1 1018.5 525)"  >
<line style="stroke: rgb(170,170,170); stroke-width: 4; stroke-dasharray: none; stroke-linecap: butt; stroke-dashoffset: 0; stroke-linejoin: miter; stroke-miterlimit: 4; fill: rgb(0,0,0); fill-rule: nonzero; opacity: 1;" vector-effect="non-scaling-stroke"  x1="-2.5" y1="0" x2="2.5" y2="0" />
</g>
<g transform="matrix(1 0 0 1 764.5 528)"  >
<path style="stroke: rgb(33,130,91); stroke-width: 4; stroke-dasharray: none; stroke-linecap: butt; stroke-dashoffset: 0; stroke-linejoin: miter; stroke-miterlimit: 4; fill: none; fill-rule: nonzero; opacity: 1;" vector-effect="non-scaling-stroke"  transform=" translate(-832.5, -92)" d="M 875 89 L 860 89 L 856 95 L 790 95" stroke-linecap="round" />
</g>
<g transform="matrix(1 0 0 1 866 478.5)"  >
<path style="stroke: rgb(33,130,91); stroke-width: 4; stroke-dasharray: none; stroke-linecap: butt; stroke-dashoffset: 0; stroke-linejoin: miter; stroke-miterlimit: 4; fill: none; fill-rule: nonzero; opacity: 1;" vector-effect="non-scaling-stroke"  transform=" translate(-934, -42.5)" d="M 929 55 L 939 45 L 939 30" stroke-linecap="round" />
</g>
<g transform="matrix(1 0 0 1 804.5 533)"  >
<path style="stroke: rgb(33,130,91); stroke-width: 4; stroke-dasharray: none; stroke-linecap: butt; stroke-dashoffset: 0; stroke-linejoin: miter; stroke-miterlimit: 4; fill: none; fill-rule: nonzero; opacity: 1;" vector-effect="non-scaling-stroke"  transform=" translate(-872.5, -97)" d="M 955 89 L 939 105 L 790 105" stroke-linecap="round" />
</g>
<g transform="matrix(1 0 0 1 946 478.5)"  >
<path style="stroke: rgb(33,130,91); stroke-width: 4; stroke-dasharray: none; stroke-linecap: butt; stroke-dashoffset: 0; stroke-linejoin: miter; stroke-miterlimit: 4; fill: none; fill-rule: nonzero; opacity: 1;" vector-effect="non-scaling-stroke"  transform=" translate(-1014, -42.5)" d="M 1009 55 L 1019 45 L 1019 30" stroke-linecap="round" />
</g>
<g transform="matrix(1 0 0 1 844.5 538)"  >
<path style="stroke: rgb(33,130,91); stroke-width: 4; stroke-dasharray: none; stroke-linecap: butt; stroke-dashoffset: 0; stroke-linejoin: miter; stroke-miterlimit: 4; fill: none; fill-rule: nonzero; opacity: 1;" vector-effect="non-scaling-stroke"  transform=" translate(-912.5, -102)" d="M 1035 89 L 1009 115 L 790 115" stroke-linecap="round" />
</g>
<g transform="matrix(1 0 0 1 1026 478.5)"  >
<path style="stroke: rgb(33,130,91); stroke-width: 4; stroke-dasharray: none; stroke-linecap: butt; stroke-dashoffset: 0; stroke-linejoin: miter; stroke-miterlimit: 4; fill: none; fill-rule: nonzero; opacity: 1;" vector-effect="non-scaling-stroke"  transform=" translate(-1094, -42.5)" d="M 1089 55 L 1099 45 L 1099 30" stroke-linecap="round" />
</g>
<g transform="matrix(1 0 0 1 782 466)"  >
<path style="stroke: rgb(33,130,91); stroke-width: 10; stroke-dasharray: none; stroke-linecap: butt; stroke-dashoffset: 0; stroke-linejoin: miter; stroke-miterlimit: 4; fill: none; fill-rule: nonzero; opacity: 1;" vector-effect="non-scaling-stroke"  transform=" translate(-850, -30)" d="M 500 30 L 1200 30" stroke-linecap="round" />
</g>
<g transform="matrix(0.14 0 0 1 724.09 504.27)"  >
<path style="stroke: rgb(33,130,91); stroke-width: 4; stroke-dasharray: none; stroke-linecap: butt; stroke-dashoffset: 0; stroke-linejoin: miter; stroke-miterlimit: 4; fill: none; fill-rule: nonzero; opacity: 1;" vector-effect="non-scaling-stroke"  transform=" translate(-840.5, -135)" d="M 781 135 L 900 135" stroke-linecap="round" />
</g>
<g transform="matrix(1 0 0 1 1132 466)"  >
<circle style="stroke: rgb(112,112,112); stroke-width: 6; stroke-dasharray: none; stroke-linecap: butt; stroke-dashoffset: 0; stroke-linejoin: miter; stroke-miterlimit: 4; fill: rgb(17,17,17); fill-rule: nonzero; opacity: 1;" vector-effect="non-scaling-stroke"  cx="0" cy="0" r="5" />
</g>
<g transform="matrix(0.14 0 0 551645716138022 775.54 503.88)"  >
<path style="stroke: rgb(33,130,91); stroke-width: 4; stroke-dasharray: none; stroke-linecap: butt; stroke-dashoffset: 0; stroke-linejoin: miter; stroke-miterlimit: 4; fill: none; fill-rule: nonzero; opacity: 1;" vector-effect="non-scaling-stroke"  transform=" translate(-840.5, -135)" d="M 781 135 L 900 135" stroke-linecap="round" />
</g>
<g transform="matrix(1 0 0 1 432 466)"  >
<circle style="stroke: rgb(112,112,112); stroke-width: 6; stroke-dasharray: none; stroke-linecap: butt; stroke-dashoffset: 0; stroke-linejoin: miter; stroke-miterlimit: 4; fill: rgb(17,17,17); fill-rule: nonzero; opacity: 1;" vector-effect="non-scaling-stroke"  cx="0" cy="0" r="5" />
</g>
<g transform="matrix(1 0 0 1 735.56 503.6)"  >
<rect style="stroke: none; stroke-width: 1; stroke-dasharray: none; stroke-linecap: butt; stroke-dashoffset: 0; stroke-linejoin: miter; stroke-miterlimit: 4; fill: rgb(119,119,119); fill-rule: nonzero; opacity: 1;" vector-effect="non-scaling-stroke"  x="-5" y="-10" rx="0" ry="0" width="10" height="20" />
</g>
<g transform="matrix(1 0 0 1 764.56 503.86)"  >
<rect style="stroke: none; stroke-width: 1; stroke-dasharray: none; stroke-linecap: butt; stroke-dashoffset: 0; stroke-linejoin: miter; stroke-miterlimit: 4; fill: rgb(119,119,119); fill-rule: nonzero; opacity: 1;" vector-effect="non-scaling-stroke"  x="-5" y="-10" rx="0" ry="0" width="10" height="20" />
</g>
<g transform="matrix(1 0 0 1 749.81 503.86)"  >
<rect style="stroke: none; stroke-width: 1; stroke-dasharray: none; stroke-linecap: butt; stroke-dashoffset: 0; stroke-linejoin: miter; stroke-miterlimit: 4; fill: rgb(94,38,5); fill-rule: nonzero; opacity: 1;" vector-effect="non-scaling-stroke"  x="-15" y="-8" rx="0" ry="0" width="30" height="16" />
</g>
<g transform="matrix(-1 0 0 -1 735.87 504.02)"  >
<path style="stroke: rgb(153,153,153); stroke-width: 2; stroke-dasharray: none; stroke-linecap: butt; stroke-dashoffset: 0; stroke-linejoin: miter; stroke-miterlimit: 4; fill: rgb(153,153,153); fill-rule: nonzero; opacity: 1;" vector-effect="non-scaling-stroke"  transform=" translate(-933.88, -135)" d="M 935 127 Q 932 135 935 143 Z" stroke-linecap="round" />
</g>
<g transform="matrix(0.43 0 0 1 742.79 581)"  >
<path style="stroke: rgb(33,130,91); stroke-width: 4; stroke-dasharray: none; stroke-linecap: butt; stroke-dashoffset: 0; stroke-linejoin: miter; stroke-miterlimit: 4; fill: none; fill-rule: nonzero; opacity: 1;" vector-effect="non-scaling-stroke"  transform=" translate(-840.5, -135)" d="M 781 135 L 900 135" stroke-linecap="round" />
</g>
<g transform="matrix(0.11 0.09 -0.64 0.77 772.76 585.81)"  >
<path style="stroke: rgb(33,130,91); stroke-width: 4; stroke-dasharray: none; stroke-linecap: butt; stroke-dashoffset: 0; stroke-linejoin: miter; stroke-miterlimit: 4; fill: none; fill-rule: nonzero; opacity: 1;" vector-effect="non-scaling-stroke"  transform=" translate(-840.5, -135)" d="M 781 135 L 900 135" stroke-linecap="round" />
</g>
<g transform="matrix(1 0 0 1 763.15 503.6)"  >
<path style="stroke: rgb(153,153,153); stroke-width: 2; stroke-dasharray: none; stroke-linecap: butt; stroke-dashoffset: 0; stroke-linejoin: miter; stroke-miterlimit: 4; fill: rgb(153,153,153); fill-rule: nonzero; opacity: 1;" vector-effect="non-scaling-stroke"  transform=" translate(-933.88, -135)" d="M 935 127 Q 932 135 935 143 Z" stroke-linecap="round" />
</g>
<g transform="matrix(1 0 0 1 778.76 591.84)"  >
<circle style="stroke: rgb(112,112,112); stroke-width: 4; stroke-dasharray: none; stroke-linecap: butt; stroke-dashoffset: 0; stroke-linejoin: miter; stroke-miterlimit: 4; fill: rgb(17,17,17); fill-rule: nonzero; opacity: 1;" vector-effect="non-scaling-stroke"  cx="0" cy="0" r="4" />
</g>
<g transform="matrix(1 0 0 1 785.55 503.44)"  >
<circle style="stroke: rgb(112,112,112); stroke-width: 4; stroke-dasharray: none; stroke-linecap: butt; stroke-dashoffset: 0; stroke-linejoin: miter; stroke-miterlimit: 4; fill: rgb(17,17,17); fill-rule: nonzero; opacity: 1;" vector-effect="non-scaling-stroke"  cx="0" cy="0" r="4" />
</g>
<g transform="matrix(1 0 0 1 720.36 496.14)"  >
<circle style="stroke: rgb(112,112,112); stroke-width: 4; stroke-dasharray: none; stroke-linecap: butt; stroke-dashoffset: 0; stroke-linejoin: miter; stroke-miterlimit: 4; fill: rgb(17,17,17); fill-rule: nonzero; opacity: 1;" vector-effect="non-scaling-stroke"  cx="0" cy="0" r="4" />
</g>
</svg>